<?xml version="1.0" encoding="UTF-8"?>
<!-- Generator: Adobe Illustrator 19.0.1, SVG Export Plug-In . SVG Version: 6.00 Build 0)  -->
<!DOCTYPE svg PUBLIC "-//W3C//DTD SVG 1.1//EN" "http://www.w3.org/Graphics/SVG/1.1/DTD/svg11.dtd" [
	<!ENTITY ns_extend "http://ns.adobe.com/Extensibility/1.0/">
	<!ENTITY ns_ai "http://ns.adobe.com/AdobeIllustrator/10.0/">
	<!ENTITY ns_graphs "http://ns.adobe.com/Graphs/1.0/">
	<!ENTITY ns_vars "http://ns.adobe.com/Variables/1.0/">
	<!ENTITY ns_imrep "http://ns.adobe.com/ImageReplacement/1.0/">
	<!ENTITY ns_sfw "http://ns.adobe.com/SaveForWeb/1.0/">
	<!ENTITY ns_custom "http://ns.adobe.com/GenericCustomNamespace/1.0/">
	<!ENTITY ns_adobe_xpath "http://ns.adobe.com/XPath/1.0/">
]>
<svg version="1.1" id="Ebene_1" xmlns:x="http://ns.adobe.com/Extensibility/1.0/" xmlns:i="http://ns.adobe.com/AdobeIllustrator/10.0/" xmlns:graph="http://ns.adobe.com/Graphs/1.0/" xmlns="http://www.w3.org/2000/svg" xmlns:xlink="http://www.w3.org/1999/xlink" x="0px" y="0px" viewBox="-268 225.3 304 146" style="enable-background:new -268 225.3 304 146;" xml:space="preserve">
<style type="text/css">
	.st0{fill:#7B7D81;}
	.st1{fill:#6DAA3D;}
</style>
<metadata>
	<sfw xmlns="http://ns.adobe.com/SaveForWeb/1.0/">
		<slices/>
		<sliceSourceBounds height="145.3" width="302.4" bottomLeftOrigin="true" x="0.8" y="0.3"/>
	</sfw>
</metadata>
<g>
	<path class="st0" d="M-75,262.8c-4,0-7.1-3.2-7.1-7.1c0-3.8,3.1-7.2,7.1-7.2s7.2,3.3,7.2,7.2C-67.8,259.6-71,262.8-75,262.8"/>
	<g>
		<path class="st1" d="M-234.1,286.8l-32.8-2.4c-0.1,1.6-0.3,3.2-0.3,4.9c0,2.6,0.1,5.1,0.3,7.5l33-2.2c-0.2-1.6-0.3-3.3-0.3-5.1    C-234.2,288.5-234.1,287.7-234.1,286.8"/>
	</g>
	<g>
		<path class="st1" d="M-224.6,264.7l-21.5-25.1c-3.2,2.7-6,5.7-8.5,9l24.9,22C-228.3,268.2-226.6,266.3-224.6,264.7"/>
	</g>
	<g>
		<path class="st1" d="M-200.9,258.9l2.4-33c-2.1-0.2-4.3-0.3-6.4-0.3c-2.1,0-4.1,0.1-6.1,0.3l2.3,33c1.3-0.1,2.6-0.2,3.9-0.2    C-203.6,258.7-202.3,258.8-200.9,258.9"/>
	</g>
	<path class="st0" d="M-203.8,370.9c-19.2,0-28.6-8.3-28.6-22c0-10.5,6.8-17.8,10.8-22.1l0.8-0.8c0,0-3.4-1.7-3-7.8   c0.4-4.4,4.3-6.3,4.3-6.3l-1.1-0.8c-5.9-4.3-8.7-11.2-8.7-21.3c0-21.3,13.3-25.8,24.5-25.8c3.2,0,6.4,0.4,9.8,1.4l1,0.3l0.6-0.8   c5-7.4,9.3-13.9,16.7-17l6.9,13.4c-6.4,2.2-11.2,5.6-14.2,10.2l-0.5,0.8l0.6,0.8c3.3,4.4,4.9,10.1,4.9,17c0,21.9-16,25.2-25.5,25.2   h-3.3c0,0-1,0.1-1,1.7c0.1,3.8,7.3,2.5,14.8,4.2c10.3,2.4,21.3,7.6,21.3,24.4C-172.7,365.1-189.6,370.9-203.8,370.9 M-212.3,333   c-2.7,4.8-4.1,7.8-4.1,11.1c0,9.2,6.6,12.4,12.3,12.4c8.1,0,12.5-3.2,12.5-8.9c0-7.9-7.2-10.7-14.9-13.7c-1.3-0.5-2.7-1-4-1.6   l-1.2-0.5L-212.3,333z M-204.5,277c-5.7,0-8.9,4.5-8.9,12.5c0,11.3,5.7,13,9.2,13c3.4,0,9-1.6,9-12.6   C-195.1,278.3-201.7,277-204.5,277"/>
	<path class="st0" d="M-160.2,293c0.8,8.4,3.3,10.9,8.6,10.9c2.9,0,6.5-1.2,11-3.3l3.3,10.8c-4.7,2.3-10.5,4-16.1,4   c-15.5,0-19.9-11.2-19.9-25.6c0-16.5,5.7-25.7,19-25.7s17.8,9.8,17.8,21.1c0,2.9-0.2,5.2-0.6,7.8L-160.2,293L-160.2,293z    M-160.4,284.1h10.2c0.1-6-0.9-9.9-5.2-9.9C-158.7,274.2-160.2,277-160.4,284.1"/>
	<path class="st0" d="M-105.7,314.2v-31.8c0-3.8-1.1-4.9-3.2-4.9s-4.2,1.3-6.2,3.1v33.5h-15.2v-48.8h13.4l0.8,4.4   c4.5-3.1,9.2-5.6,14.2-5.6c7.2,0,11.4,3.5,11.4,15v35.1L-105.7,314.2L-105.7,314.2z"/>
	<rect x="-82.5" y="265.4" class="st0" width="15.3" height="48.8"/>
	<g>
		<polygon class="st1" points="18.3,314.2 10.2,300 9.6,299.1 1,314.2 -15.5,314.2 1.4,288.6 -14.1,265.4 2.9,265.4 9.3,277     9.9,278 17.5,265.1 33.1,265.4 17.9,288.3 35.2,314.2   "/>
	</g>
	<g>
		<path class="st1" d="M-44.1,265.4v31.8c0,3.7,1.1,4.9,3.2,4.9s4.2-1.3,6.2-3.1v-33.5h15.2v48.8h-13.4l-0.8-4.3    c-4.6,3.1-9.2,5.5-14.2,5.5c-7.2,0-11.4-3.6-11.4-15v-35.1L-44.1,265.4L-44.1,265.4z"/>
	</g>
</g>
</svg>